<svg xmlns="http://www.w3.org/2000/svg" width="185.647px" height="224.941px" viewBox="196.825 233.236 185.647 224.941" enable-background="new 196.825 233.236 185.647 224.941">
<g>
  <g>
    <path fill="#7289da" d="M198.003,402.368c-1.113,6.164,3.103,11.211,9.369,11.213l94.138,0.042
      c6.265,0.003,12.302-5.042,13.414-11.203l28.332-156.929c1.113-6.164-3.103-11.211-9.369-11.213l-94.138-0.042
      c-6.265-0.003-12.302,5.042-13.414,11.203L198.003,402.368"/>
    <path fill="none" stroke="#000" stroke-width="4" stroke-miterlimit="10" d="M198.003,402.368
      c-1.113,6.164,3.103,11.211,9.369,11.213l94.138,0.042c6.265,0.003,12.302-5.042,13.414-11.203l28.332-156.929
      c1.113-6.164-3.103-11.211-9.369-11.213l-94.138-0.042c-6.265-0.003-12.302,5.042-13.414,11.203L198.003,402.368z"/>
  </g>
  <g>
    <path fill="#7289da" d="M236.04,445.922c-1.113,6.164,3.103,11.211,9.369,11.213l94.138,0.042
      c6.265,0.003,12.302-5.042,13.414-11.203l28.332-156.929c1.113-6.164-3.103-11.211-9.369-11.213l-94.138-0.042
      c-6.265-0.003-12.302,5.042-13.414,11.203L236.04,445.922"/>
    <path fill="none" stroke="#000" stroke-width="4" stroke-miterlimit="10" d="M236.04,445.922
      c-1.113,6.164,3.103,11.211,9.369,11.213l94.138,0.042c6.265,0.003,12.302-5.042,13.414-11.203l28.332-156.929
      c1.113-6.164-3.103-11.211-9.369-11.213l-94.138-0.042c-6.265-0.003-12.302,5.042-13.414,11.203L236.04,445.922L236.04,445.922z"
      />
  </g>
</g>
</svg>
