<svg xmlns="http://www.w3.org/2000/svg" height="65" viewBox="0 0 1434.0498047 249.1552734" enable-background="new 0 0 1434.0498047 249.1552734" class="logo">
 <switch>
  <g>
   <g>
    <path fill="#FF4343" d="m586.66 17.17c57.05 4.237 102.57 49.903 106.87 106.71.063.828.116 1.666.159 2.495l-10.02-.105c-3.176-52.44-44.736-94.87-97.11-99.08l.104-10.03"/>
    <path fill="#57F287" d="m683.51 141.27l10.02.105c-4.295 57.879-51.24 103.89-109.2 107.03l.104-10.03c52.45-3.167 94.87-44.746 99.07-97.11"/>
    <path fill="#FEE75C" d="m462.3 139.04l10.02.104c1.506 25.469 12.03 49.26 30.07 67.66 18.03 18.402 41.607 29.404 67.04 31.421l-.104 10.03c-28.11-2.075-54.18-14.14-74.08-34.449-19.909-20.306-31.447-46.62-32.945-74.77"/>
    <path fill="#7289da" d="m571.66 17.01l-.104 10.03c-52.44 3.166-94.87 44.746-99.08 97.11l-10.01-.105c4.284-57.888 51.23-103.9 109.2-107.03"/>
   </g>
   <g>
    <path fill="#FEE75C" d="m165.75 163.61c0 14.02-1.991 26.497-5.971 37.427-3.982 10.933-9.654 20.14-17.02 27.625-7.368 7.484-16.279 13.16-26.733 17.02-10.457 3.86-22.16 5.793-35.11 5.793-11.763 0-22.606-1.844-32.525-5.525-9.922-3.682-18.477-9.117-25.664-16.308-7.19-7.188-12.774-16.1-16.753-26.733-3.982-10.632-5.971-22.901-5.971-36.803v-144.72c0-.713.178-1.364.535-1.961.356-.593.98-1.068 1.872-1.426.891-.355 1.988-.651 3.297-.891 1.306-.236 3.03-.356 5.168-.356 2.02 0 3.743.12 5.168.356 1.426.239 2.554.535 3.386.891.83.357 1.426.833 1.782 1.426.356.597.535 1.248.535 1.961v141.15c0 11.526 1.395 21.626 4.188 30.3 2.79 8.675 6.831 15.893 12.12 21.654 5.285 5.764 11.701 10.1 19.248 13.01 7.543 2.913 16.07 4.366 25.575 4.366 9.624 0 18.207-1.395 25.753-4.188 7.543-2.791 13.929-7.04 19.16-12.743 5.227-5.703 9.237-12.802 12.03-21.298 2.791-8.493 4.188-18.445 4.188-29.852v-142.4c0-.713.178-1.364.535-1.961.356-.593.95-1.068 1.782-1.426.83-.355 1.96-.651 3.386-.891 1.426-.236 3.147-.356 5.168-.356 2.02 0 3.743.12 5.168.356 1.426.239 2.554.535 3.386.891.83.357 1.426.833 1.782 1.426.356.597.535 1.248.535 1.961v142.22"/>
    <path fill="#FEE75C" d="m398.15 237.93c0 2.139-.329 3.92-.98 5.346-.654 1.426-1.487 2.585-2.495 3.476-1.01.892-2.139 1.515-3.386 1.872-1.248.355-2.406.534-3.476.534h-4.456c-2.378 0-4.544-.298-6.505-.892-1.96-.593-3.862-1.632-5.703-3.118-1.843-1.484-3.684-3.476-5.524-5.971-1.844-2.495-3.893-5.703-6.149-9.624l-81.27-144c-4.04-7.01-8.109-14.228-12.208-21.654-4.099-7.424-7.992-14.642-11.673-21.654h-.178c.117 8.675.178 17.556.178 26.645 0 9.09 0 17.973 0 26.645v149.35c0 .713-.178 1.367-.535 1.96-.356.597-.952 1.07-1.782 1.426-.833.357-1.933.652-3.297.892-1.368.236-3.119.356-5.258.356-2.02 0-3.743-.12-5.168-.356-1.426-.239-2.556-.534-3.386-.892-.833-.355-1.426-.829-1.782-1.426-.356-.593-.535-1.247-.535-1.96v-215.83c0-4.277 1.128-7.219 3.386-8.822 2.256-1.604 4.456-2.406 6.594-2.406h8.911c2.852 0 5.227.239 7.129.713 1.899.477 3.623 1.278 5.168 2.406 1.543 1.13 3.058 2.734 4.545 4.812 1.484 2.08 3.119 4.724 4.901 7.931l62.2 110.32c3.921 6.893 7.633 13.517 11.139 19.872 3.503 6.357 6.92 12.595 10.248 18.713 3.325 6.121 6.622 12.15 9.892 18.09 3.266 5.942 6.505 11.94 9.713 18h.178c-.12-9.98-.178-20.376-.178-31.19 0-10.811 0-21.21 0-31.19v-134.2c0-.713.178-1.364.535-1.961.356-.593.95-1.097 1.782-1.515.83-.415 1.93-.713 3.297-.891 1.364-.179 3.119-.268 5.257-.268 1.899 0 3.564.089 4.99.268 1.426.178 2.554.476 3.386.891.83.418 1.454.922 1.871 1.515.415.597.624 1.248.624 1.961v215.83"/>
   </g>
   <g>
    <path fill="#FEE75C" d="m892.97 244.88c0 .713-.179 1.367-.535 1.96-.356.597-.922 1.07-1.692 1.426-.774.357-1.844.652-3.208.892-1.368.236-3.061.356-5.08.356-2.139 0-3.893-.12-5.257-.356-1.368-.239-2.438-.534-3.208-.892-.774-.355-1.337-.829-1.693-1.426-.356-.593-.535-1.247-.535-1.96v-95.71c0-9.98-.773-18.09-2.316-24.327-1.546-6.237-3.862-11.584-6.951-16.04-3.091-4.455-7.04-7.9-11.852-10.337-4.812-2.434-10.426-3.653-16.842-3.653-8.198 0-16.396 2.913-24.595 8.732-8.198 5.823-16.814 14.378-25.843 25.664v115.67c0 .713-.178 1.367-.534 1.96-.356.597-.922 1.07-1.693 1.426-.774.357-1.844.652-3.208.892-1.367.236-3.119.356-5.258.356-2.02 0-3.715-.12-5.079-.356-1.367-.239-2.467-.534-3.297-.892-.833-.355-1.398-.829-1.693-1.426-.298-.593-.445-1.247-.445-1.96v-161.29c0-.713.147-1.364.445-1.96.295-.593.86-1.098 1.693-1.515.83-.415 1.871-.713 3.119-.892 1.247-.178 2.879-.267 4.9-.267 2.02 0 3.682.089 4.99.267 1.307.179 2.317.477 3.03.892.713.417 1.217.922 1.515 1.515.295.596.445 1.247.445 1.96v22.813c9.268-10.336 18.357-17.822 27.27-22.455 8.911-4.635 17.761-6.951 26.555-6.951 10.574 0 19.485 1.782 26.733 5.347 7.246 3.564 13.1 8.376 17.556 14.437 4.455 6.06 7.663 13.13 9.624 21.21 1.96 8.08 2.94 17.822 2.94 29.23v97.67"/>
    <path fill="#FEE75C" d="m972.99 244.88c0 .713-.178 1.367-.534 1.96-.356.597-.922 1.07-1.693 1.426-.774.357-1.844.652-3.208.892-1.367.236-3.119.356-5.258.356-2.02 0-3.715-.12-5.079-.356-1.367-.239-2.467-.534-3.297-.892-.833-.355-1.398-.829-1.693-1.426-.298-.593-.445-1.247-.445-1.96v-240.24c0-.713.147-1.364.445-1.96.295-.594.86-1.098 1.693-1.516.83-.415 1.93-.713 3.297-.891 1.364-.179 3.058-.268 5.079-.268 2.139 0 3.891.089 5.258.268 1.364.178 2.434.476 3.208.891.771.418 1.337.922 1.693 1.516.356.596.534 1.247.534 1.96v240.24"/>
    <path fill="#FEE75C" d="m1056.75 29.23c0 5.703-1.01 9.565-3.03 11.584-2.02 2.022-5.703 3.03-11.05 3.03-5.229 0-8.822-.98-10.782-2.94-1.961-1.961-2.941-5.793-2.941-11.496s1.01-9.563 3.03-11.584c2.02-2.02 5.703-3.03 11.05-3.03 5.227 0 8.822.979 10.782 2.94 1.961 1.96 2.94 5.792 2.94 11.495m-3.208 215.65c0 .713-.178 1.367-.534 1.96-.356.597-.922 1.07-1.693 1.426-.774.357-1.844.652-3.208.892-1.367.236-3.119.356-5.258.356-2.02 0-3.715-.12-5.079-.356-1.367-.239-2.467-.534-3.297-.892-.833-.355-1.398-.829-1.693-1.426-.298-.593-.445-1.247-.445-1.96v-161.29c0-.713.147-1.364.445-1.96.295-.593.86-1.098 1.693-1.515.83-.415 1.93-.713 3.297-.892 1.364-.178 3.058-.267 5.079-.267 2.139 0 3.891.089 5.258.267 1.364.179 2.434.477 3.208.892.771.417 1.337.922 1.693 1.515.356.596.534 1.247.534 1.96v161.29"/>
    <path fill="#FEE75C" d="m1243.71 244.88c0 .713-.179 1.367-.535 1.96-.356.597-.922 1.07-1.692 1.426-.774.357-1.844.652-3.208.892-1.368.236-3.061.356-5.08.356-2.139 0-3.893-.12-5.257-.356-1.368-.239-2.438-.534-3.208-.892-.774-.355-1.337-.829-1.693-1.426-.356-.593-.535-1.247-.535-1.96v-95.71c0-9.98-.773-18.09-2.316-24.327-1.546-6.237-3.862-11.584-6.951-16.04-3.091-4.455-7.04-7.9-11.852-10.337-4.812-2.434-10.426-3.653-16.842-3.653-8.198 0-16.396 2.913-24.595 8.732-8.198 5.823-16.814 14.378-25.843 25.664v115.67c0 .713-.178 1.367-.534 1.96-.356.597-.922 1.07-1.693 1.426-.774.357-1.844.652-3.208.892-1.367.236-3.119.356-5.258.356-2.02 0-3.715-.12-5.079-.356-1.367-.239-2.467-.534-3.297-.892-.833-.355-1.398-.829-1.693-1.426-.298-.593-.445-1.247-.445-1.96v-161.29c0-.713.147-1.364.445-1.96.295-.593.86-1.098 1.693-1.515.83-.415 1.871-.713 3.119-.892 1.247-.178 2.879-.267 4.9-.267 2.02 0 3.682.089 4.99.267 1.307.179 2.317.477 3.03.892.713.417 1.217.922 1.515 1.515.295.596.445 1.247.445 1.96v22.813c9.268-10.336 18.357-17.822 27.27-22.455 8.911-4.635 17.761-6.951 26.555-6.951 10.574 0 19.485 1.782 26.733 5.347 7.246 3.564 13.1 8.376 17.556 14.437 4.455 6.06 7.663 13.13 9.624 21.21 1.96 8.08 2.94 17.822 2.94 29.23v97.67"/>
    <path fill="#FEE75C" d="m1434.05 155.95c0 4.277-1.131 7.218-3.386 8.821-2.259 1.604-4.456 2.406-6.595 2.406h-109.96c0 9.98.98 19.01 2.941 27.09 1.96 8.08 5.196 15 9.713 20.763 4.514 5.765 10.396 10.189 17.644 13.277 7.246 3.092 16.16 4.635 26.733 4.635 7.486 0 14.197-.652 20.14-1.961 5.939-1.306 11.08-2.763 15.416-4.366 4.336-1.604 7.9-3.058 10.693-4.366 2.791-1.307 4.781-1.961 5.971-1.961.713 0 1.364.178 1.96.535.594.355 1.07.921 1.426 1.692.357.774.624 1.755.803 2.94.178 1.189.268 2.674.268 4.456 0 .833-.062 1.635-.179 2.406-.12.773-.268 1.486-.445 2.139-.179.654-.446 1.278-.802 1.871-.357.596-.833 1.189-1.426 1.782-.597.596-2.438 1.635-5.525 3.119-3.091 1.486-7.129 2.971-12.12 4.455-4.99 1.487-10.782 2.821-17.377 4.01-6.594 1.187-13.695 1.783-21.297 1.783-12.477 0-23.526-1.872-33.15-5.614-9.624-3.743-17.705-9.268-24.24-16.575-6.535-7.307-11.495-16.365-14.881-27.18-3.387-10.811-5.08-23.347-5.08-37.604 0-13.662 1.752-25.901 5.258-36.715 3.503-10.81 8.524-19.988 15.06-27.535 6.533-7.544 14.405-13.306 23.615-17.287 9.206-3.979 19.454-5.971 30.743-5.971 12.12 0 22.456 2.02 31.01 6.06 8.555 4.04 15.595 9.477 21.12 16.308 5.525 6.833 9.563 14.765 12.12 23.793 2.554 9.03 3.832 18.535 3.832 28.516v4.277m-21.921-6.238c.355-17.11-3.564-30.477-11.764-40.1-8.197-9.625-20.14-14.437-35.822-14.437-8.08 0-15.18 1.515-21.298 4.545-6.121 3.03-11.289 7.04-15.505 12.03-4.22 4.99-7.458 10.782-9.714 17.376-2.258 6.595-3.564 13.456-3.921 20.585h98.02"/>
   </g>
  </g>
 </switch>
</svg>
