<svg xmlns="http://www.w3.org/2000/svg" width="689.61" viewBox="0 0 689.6126709 234.7197266" enable-background="new 0 0 689.6126709 234.7197266">
 <switch>
  <g>
   <g>
    <path fill="#FF4343" d="m582.75 1.292c57.05 4.237 102.57 49.903 106.87 106.71.063.828.116 1.666.159 2.495l-10.02-.105c-3.176-52.44-44.736-94.87-97.11-99.08l.104-10.03"/>
    <path fill="#57F287" d="m679.6 125.39l10.02.105c-4.295 57.879-51.24 103.89-109.2 107.03l.104-10.03c52.45-3.167 94.87-44.746 99.07-97.11"/>
    <path fill="#FEE75C" d="m458.39 123.16l10.02.104c1.506 25.469 12.03 49.26 30.07 67.66 18.03 18.402 41.607 29.404 67.04 31.421l-.104 10.03c-28.11-2.075-54.18-14.14-74.08-34.449-19.909-20.306-31.447-46.62-32.945-74.77"/>
    <path fill="#7289da" d="m567.74 1.134l-.104 10.03c-52.44 3.166-94.87 44.746-99.08 97.11l-10.01-.105c4.284-57.888 51.23-103.9 109.2-107.03"/>
   </g>
   <g>
    <path fill="#7289da" d="m165.75 146.86c0 14.02-1.991 26.497-5.971 37.427-3.982 10.933-9.654 20.14-17.02 27.625-7.368 7.484-16.279 13.16-26.733 17.02-10.457 3.86-22.16 5.793-35.11 5.793-11.763 0-22.606-1.844-32.525-5.525-9.922-3.682-18.477-9.117-25.664-16.308-7.19-7.188-12.774-16.1-16.753-26.733-3.982-10.632-5.971-22.901-5.971-36.803v-144.72c0-.713.178-1.364.535-1.961.356-.593.98-1.068 1.872-1.426.891-.355 1.988-.651 3.297-.891 1.306-.236 3.03-.356 5.168-.356 2.02 0 3.743.12 5.168.356 1.426.239 2.554.535 3.386.891.83.357 1.426.833 1.782 1.426.356.597.535 1.248.535 1.961v141.15c0 11.526 1.395 21.626 4.188 30.3 2.79 8.675 6.831 15.893 12.12 21.654 5.285 5.764 11.701 10.1 19.248 13.01 7.543 2.913 16.07 4.366 25.575 4.366 9.624 0 18.207-1.395 25.753-4.188 7.543-2.791 13.929-7.04 19.16-12.743 5.227-5.703 9.237-12.802 12.03-21.298 2.791-8.493 4.188-18.445 4.188-29.852v-142.4c0-.713.178-1.364.535-1.961.356-.593.95-1.068 1.782-1.426.83-.355 1.96-.651 3.386-.891 1.426-.236 3.147-.356 5.168-.356 2.02 0 3.743.12 5.168.356 1.426.239 2.554.535 3.386.891.83.357 1.426.833 1.782 1.426.356.597.535 1.248.535 1.961v142.22"/>
    <path fill="#7289da" d="m398.15 221.17c0 2.139-.329 3.92-.98 5.346-.654 1.426-1.487 2.585-2.495 3.476-1.01.892-2.139 1.515-3.386 1.872-1.248.355-2.406.534-3.476.534h-4.456c-2.378 0-4.544-.298-6.505-.892-1.96-.593-3.862-1.632-5.703-3.118-1.843-1.484-3.684-3.476-5.524-5.971-1.844-2.495-3.893-5.703-6.149-9.624l-81.27-144c-4.04-7.01-8.109-14.228-12.208-21.654-4.099-7.424-7.992-14.642-11.673-21.654h-.178c.117 8.675.178 17.556.178 26.645 0 9.09 0 17.973 0 26.645v149.35c0 .713-.178 1.367-.535 1.96-.356.597-.952 1.07-1.782 1.426-.833.357-1.933.652-3.297.892-1.368.236-3.119.356-5.258.356-2.02 0-3.743-.12-5.168-.356-1.426-.239-2.556-.534-3.386-.892-.833-.355-1.426-.829-1.782-1.426-.356-.593-.535-1.247-.535-1.96v-215.83c0-4.277 1.128-7.219 3.386-8.822 2.256-1.604 4.456-2.406 6.594-2.406h8.911c2.852 0 5.227.239 7.129.713 1.899.477 3.623 1.278 5.168 2.406 1.543 1.13 3.058 2.734 4.545 4.812 1.484 2.08 3.119 4.724 4.901 7.931l62.2 110.32c3.921 6.893 7.633 13.517 11.139 19.872 3.503 6.357 6.92 12.595 10.248 18.713 3.325 6.121 6.622 12.15 9.892 18.09 3.266 5.942 6.505 11.94 9.713 18h.178c-.12-9.98-.178-20.376-.178-31.19 0-10.811 0-21.21 0-31.19v-134.2c0-.713.178-1.364.535-1.961.356-.593.95-1.097 1.782-1.515.83-.415 1.93-.713 3.297-.891 1.364-.179 3.119-.268 5.257-.268 1.899 0 3.564.089 4.99.268 1.426.178 2.554.476 3.386.891.83.418 1.454.922 1.871 1.515.415.597.624 1.248.624 1.961v215.83"/>
   </g>
  </g>
 </switch>
</svg>
