<svg id="loader" xmlns="http://www.w3.org/2000/svg" width="231.384px" height="231.393px" viewBox="0 0 231.384 231.393" enable-background="new 0 0 231.384 231.393">
<g>
	<path fill="#E31218" d="M122.479,0.033c57.114,3.309,103.366,48.229,108.587,104.959c0.076,0.826,0.143,1.664,0.199,2.492
		l-10.017,0.058c-4.028-52.381-46.273-94.135-98.711-97.483L122.479,0.033z"/>
	<path fill="#53AF32" d="M221.334,122.537l10.017-0.058c-3.353,57.941-49.541,104.712-107.44,108.796l-0.059-10.027
		C176.243,217.229,217.985,174.965,221.334,122.537z"/>
	<path fill="#FED700" d="M0.118,123.91l10.017-0.059c1.92,25.441,12.831,49.061,31.168,67.166
		c18.327,18.106,42.08,28.724,67.544,30.327l0.059,10.027c-28.137-1.618-54.404-13.259-74.631-33.239
		C14.039,178.152,2.074,152.029,0.118,123.91z"/>
	<path fill="#384394" d="M107.474,0.118l0.059,10.027c-52.382,4.018-94.134,46.283-97.493,98.712l-10.007,0.057
		C3.376,50.964,49.563,4.193,107.474,0.118z"/>
</g>
</svg>
